<svg width="19" height="19" viewBox="0 0 19 19" fill="none" xmlns="http://www.w3.org/2000/svg">
<g id="fi-sr-checkbox">
<g clip-path="url(#clip0_414_936)">
<g id="Group">
<path id="Vector" d="M14.9682 0.122559H4.1664C2.03686 0.125126 0.311162 1.85083 0.308594 3.98036V14.7822C0.311162 16.9117 2.03686 18.6374 4.1664 18.64H14.9682C17.0977 18.6374 18.8235 16.9117 18.826 14.7822V3.98036C18.8235 1.85083 17.0977 0.125126 14.9682 0.122559ZM15.7398 6.35598L8.59976 13.496C7.99726 14.0987 7.02021 14.0989 6.41746 13.4964C6.41731 13.4963 6.41717 13.4961 6.41702 13.496L3.39481 10.4746C3.09289 10.1727 3.09289 9.68318 3.39481 9.38129C3.69674 9.07941 4.18622 9.07937 4.4881 9.38129L7.50951 12.4027L14.6503 5.26269C14.9522 4.96186 15.4408 4.96272 15.7417 5.26461C16.0425 5.56653 16.0417 6.05514 15.7398 6.35598Z" fill="#38B684"/>
</g>
</g>
</g>
<defs>
<clipPath id="clip0_414_936">
<rect x="0.308594" y="0.122559" width="18.5174" height="18.5174" rx="9.2587" fill="white"/>
</clipPath>
</defs>
</svg>
