<svg width="17" height="19" viewBox="0 0 17 19" fill="none" xmlns="http://www.w3.org/2000/svg">
<g id="Group">
<path id="Vector" d="M13.968 6.85508V5.75636C13.968 2.77354 11.55 0.355469 8.56713 0.355469C5.58428 0.355469 3.16624 2.77354 3.16624 5.75636V6.85508C1.76203 7.46792 0.853588 8.85362 0.851562 10.3857V15.0151C0.854094 17.1446 2.57979 18.8703 4.70933 18.8729H12.4249C14.5544 18.8703 16.2801 17.1446 16.2827 15.0151V10.3857C16.2807 8.85362 15.3722 7.46792 13.968 6.85508ZM9.33868 13.472C9.33868 13.8981 8.99325 14.2435 8.56713 14.2435C8.14102 14.2435 7.79559 13.8981 7.79559 13.472V11.9288C7.79559 11.5027 8.14102 11.1573 8.56713 11.1573C8.99325 11.1573 9.33868 11.5027 9.33868 11.9288V13.472ZM12.4249 6.52795H4.70933V5.7564C4.70933 3.62581 6.43651 1.8986 8.56713 1.8986C10.6978 1.8986 12.4249 3.62578 12.4249 5.7564V6.52795Z" fill="#BDBDBD"/>
</g>
</svg>
