<svg width="26" height="25" viewBox="0 0 26 25" fill="none" xmlns="http://www.w3.org/2000/svg">
<g id="fi-rr-thermometer-half" clip-path="url(#clip0_45_27)">
<path id="Vector" d="M14.0417 14.7755V8.33383C14.0417 8.05756 13.932 7.79261 13.7367 7.59726C13.5413 7.40191 13.2764 7.29216 13.0001 7.29216C12.7238 7.29216 12.4589 7.40191 12.2635 7.59726C12.0682 7.79261 11.9584 8.05756 11.9584 8.33383V14.7755C11.2651 15.0211 10.681 15.5039 10.3092 16.1385C9.93737 16.7731 9.8018 17.5187 9.92643 18.2436C10.0511 18.9685 10.4279 19.626 10.9903 20.1C11.5527 20.5739 12.2646 20.8339 13.0001 20.8339C13.7356 20.8339 14.4474 20.5739 15.0099 20.1C15.5723 19.626 15.9491 18.9685 16.0737 18.2436C16.1984 17.5187 16.0628 16.7731 15.691 16.1385C15.3192 15.5039 14.735 15.0211 14.0417 14.7755ZM18.2084 12.6161V5.20883C17.9886 -1.67553 8.00946 -1.66616 7.79175 5.20883V12.6161C6.78689 13.6417 6.10717 14.9411 5.83785 16.3515C5.56852 17.7618 5.72156 19.2202 6.27779 20.5439C6.83401 21.8676 7.76866 22.9977 8.96453 23.7923C10.1604 24.587 11.5643 25.0109 13.0001 25.0109C14.4359 25.0109 15.8398 24.587 17.0356 23.7923C18.2315 22.9977 19.1662 21.8676 19.7224 20.5439C20.2786 19.2202 20.4316 17.7618 20.1623 16.3515C19.893 14.9411 19.2133 13.6417 18.2084 12.6161ZM13.0001 22.9171C11.9517 22.9054 10.931 22.5786 10.0708 21.9793C9.21048 21.3799 8.55032 20.5357 8.17604 19.5563C7.80176 18.5769 7.73066 17.5076 7.97198 16.4873C8.2133 15.467 8.75589 14.5428 9.52925 13.8349C9.63806 13.7372 9.72509 13.6177 9.78467 13.4842C9.84425 13.3507 9.87506 13.2061 9.87508 13.0599V5.20883C9.87508 4.38003 10.2043 3.58518 10.7904 2.99913C11.3764 2.41308 12.1713 2.08384 13.0001 2.08384C13.8289 2.08384 14.6237 2.41308 15.2098 2.99913C15.7958 3.58518 16.1251 4.38003 16.1251 5.20883V13.0599C16.1251 13.2061 16.1559 13.3507 16.2155 13.4842C16.2751 13.6177 16.3621 13.7372 16.4709 13.8349C17.2443 14.5428 17.7869 15.467 18.0282 16.4873C18.2695 17.5076 18.1984 18.5769 17.8241 19.5563C17.4498 20.5357 16.7897 21.3799 15.9294 21.9793C15.0691 22.5786 14.0485 22.9054 13.0001 22.9171Z" fill="#38B684"/>
</g>
<defs>
<clipPath id="clip0_45_27">
<rect width="25" height="25" fill="white" transform="translate(0.5)"/>
</clipPath>
</defs>
</svg>
