<svg width="25" height="25" viewBox="0 0 25 25" fill="none" xmlns="http://www.w3.org/2000/svg">
<g id="fi-rr-headset">
<path id="Vector" d="M21.8749 12.9413V11.458C21.8749 8.9716 20.8872 6.58704 19.129 4.82888C17.3709 3.07073 14.9863 2.08301 12.4999 2.08301C10.0135 2.08301 7.62893 3.07073 5.87078 4.82888C4.11263 6.58704 3.12491 8.9716 3.12491 11.458V12.9413C2.03237 13.4224 1.13824 14.2642 0.592222 15.3258C0.0462023 16.3874 -0.11857 17.6043 0.125489 18.7728C0.369548 19.9414 1.00762 20.9906 1.9329 21.7449C2.85817 22.4992 4.01448 22.9128 5.20824 22.9163C5.76078 22.9163 6.29068 22.6968 6.68138 22.3061C7.07208 21.9154 7.29157 21.3855 7.29157 20.833V14.583C7.29157 14.0305 7.07208 13.5006 6.68138 13.1099C6.29068 12.7192 5.76078 12.4997 5.20824 12.4997V11.458C5.20824 9.52414 5.97647 7.66947 7.34392 6.30202C8.71137 4.93457 10.566 4.16634 12.4999 4.16634C14.4338 4.16634 16.2884 4.93457 17.6559 6.30202C19.0233 7.66947 19.7916 9.52414 19.7916 11.458V12.4997C19.239 12.4997 18.7091 12.7192 18.3184 13.1099C17.9277 13.5006 17.7082 14.0305 17.7082 14.583V20.833H14.5832C14.307 20.833 14.042 20.9428 13.8467 21.1381C13.6513 21.3335 13.5416 21.5984 13.5416 21.8747C13.5416 22.1509 13.6513 22.4159 13.8467 22.6112C14.042 22.8066 14.307 22.9163 14.5832 22.9163H19.7916C20.9853 22.9128 22.1416 22.4992 23.0669 21.7449C23.9922 20.9906 24.6303 19.9414 24.8743 18.7728C25.1184 17.6043 24.9536 16.3874 24.4076 15.3258C23.8616 14.2642 22.9674 13.4224 21.8749 12.9413ZM5.20824 20.833C4.37944 20.833 3.58458 20.5038 2.99853 19.9177C2.41248 19.3317 2.08324 18.5368 2.08324 17.708C2.08324 16.8792 2.41248 16.0843 2.99853 15.4983C3.58458 14.9122 4.37944 14.583 5.20824 14.583V20.833ZM19.7916 20.833V14.583C20.6204 14.583 21.4152 14.9122 22.0013 15.4983C22.5873 16.0843 22.9166 16.8792 22.9166 17.708C22.9166 18.5368 22.5873 19.3317 22.0013 19.9177C21.4152 20.5038 20.6204 20.833 19.7916 20.833Z" fill="#2D749E"/>
</g>
</svg>
