<svg width="24" height="24" viewBox="0 0 24 24" fill="none" xmlns="http://www.w3.org/2000/svg">
<g id="fi-rr-power" clip-path="url(#clip0_43_119)">
<path id="Vector" d="M14.9997 3.84864C15.0029 4.0475 15.0641 4.24111 15.1759 4.40564C15.2876 4.57016 15.445 4.69842 15.6287 4.77464C17.271 5.49722 18.6597 6.69414 19.6168 8.21174C20.5738 9.72934 21.0554 11.4983 20.9997 13.2916C20.961 15.6786 19.9757 17.9524 18.2605 19.6128C16.5453 21.2733 14.2407 22.1844 11.8537 22.1456C9.46679 22.1069 7.19299 21.1216 5.53254 19.4064C3.87209 17.6912 2.96101 15.3866 2.99974 12.9996C3.00205 11.2559 3.51088 9.55031 4.46439 8.09032C5.41789 6.63032 6.775 5.47877 8.37074 4.77564C8.55453 4.69897 8.71194 4.57032 8.82367 4.40547C8.93541 4.24063 8.9966 4.04676 8.99974 3.84764C8.99999 3.68385 8.96002 3.5225 8.88331 3.37778C8.80661 3.23306 8.69554 3.10939 8.55985 3.01765C8.42417 2.92591 8.26802 2.8689 8.10514 2.85164C7.94227 2.83437 7.77764 2.85738 7.62574 2.91864C5.30502 3.92478 3.40196 5.69998 2.2371 7.94523C1.07224 10.1905 0.716765 12.7686 1.23055 15.2453C1.74433 17.722 3.09597 19.946 5.05781 21.5426C7.01965 23.1392 9.4718 24.011 12.0012 24.011C14.5307 24.011 16.9828 23.1392 18.9447 21.5426C20.9065 19.946 22.2581 17.722 22.7719 15.2453C23.2857 12.7686 22.9302 10.1905 21.7654 7.94523C20.6005 5.69998 18.6975 3.92478 16.3767 2.91864C16.2246 2.85671 16.0596 2.83322 15.8962 2.85022C15.7328 2.86723 15.5762 2.92422 15.44 3.01615C15.3039 3.10808 15.1925 3.23212 15.1158 3.37732C15.039 3.52251 14.9991 3.68439 14.9997 3.84864Z" fill="#38B684"/>
<path id="Vector_2" d="M13.0001 1C13.0001 0.447715 12.5524 0 12.0001 0C11.4478 0 11.0001 0.447715 11.0001 1V7C11.0001 7.55228 11.4478 8 12.0001 8C12.5524 8 13.0001 7.55228 13.0001 7V1Z" fill="#38B684"/>
</g>
<defs>
<clipPath id="clip0_43_119">
<rect width="24" height="24" fill="white"/>
</clipPath>
</defs>
</svg>
